<svg width="512" height="512" viewBox="0 0 24 24" fill="none" xmlns="http://www.w3.org/2000/svg">
  <defs>
    <linearGradient id="logo-gradient" x1="0%" y1="0%" x2="100%" y2="100%">
      <stop offset="0%" stop-color="#1DB954" stop-opacity="1" />
      <stop offset="100%" stop-color="#1DB954" stop-opacity="0.7" />
    </linearGradient>
    <radialGradient id="aura" cx="50%" cy="50%" r="50%" fx="50%" fy="50%">
      <stop offset="0%" stop-color="#1DB954" stop-opacity="0.15" />
      <stop offset="100%" stop-color="#1DB954" stop-opacity="0" />
    </radialGradient>
  </defs>
  <rect width="24" height="24" rx="6" fill="#000000"/>
  <circle cx="12" cy="12" r="10" fill="url(#aura)" />
  <circle cx="12" cy="12" r="10" stroke="url(#logo-gradient)" stroke-width="1" stroke-dasharray="4 2" opacity="0.2"/>
  <path d="M7 8C7 8 9 6.5 12 6.5C15 6.5 17 8 17 11C17 14 14.5 14.5 12 14.5C9.5 14.5 7 15 7 18C7 21 9 22 12 22C15 22 17 20.5 17 20.5" stroke="url(#logo-gradient)" stroke-width="2.5" stroke-linecap="round"/>
  <path d="M10.5 10.5L14.5 12.5L10.5 14.5V10.5Z" fill="#1DB954"/>
  <circle cx="18" cy="6" r="1.2" fill="#1DB954"/>
  <circle cx="6" cy="18" r="0.8" fill="#1DB954"/>
</svg>
